<svg width="36" height="36" viewBox="0 0 30 36" fill="none" xmlns="http://www.w3.org/2000/svg">
<path fill-rule="evenodd" clip-rule="evenodd" d="M17.9544 5.65027L18.2279 0L11.3014 4.19588L6.83535 8.29392L0.911603 12.4856L6.01324 10.6633L2.27901 14.3992L0 19.8679L4.2837 15.8577L3.73674 19.6856V22.2373L5.00964 25.4279L6.19472 19.1387L9.02404 11.8475L10.8464 10.9367L12.6696 11.2094L10.5729 9.47817L13.7635 10.7544L17.9552 9.11353L20.1431 10.3898L22.4213 4.46518L17.9544 5.65027ZM15.8586 6.33188L11.3022 7.51696L14.492 5.05647L13.4884 4.60067L16.8605 2.41282L15.8586 6.33188ZM21.6008 9.31842L23.6507 11.2328L24.2662 14.9235L28.9146 18.5465H29.9399L29.7342 19.9139L29.0509 20.2552L28.7774 19.0249L23.4458 15.4705L20.4383 10.8221L21.6008 9.31842ZM22.3485 16.2859L18.8853 13.2324L21.6761 14.1942L22.3485 16.2859ZM28.2003 21.2805L28.4738 20.0729L28.4571 19.9968L27.7546 20.2937L27.5229 21.0229L26.9508 21.3449L25.9138 21.6117L24.518 22.239L20.2602 20.2L15.3952 18.6979L15.386 18.713L15.8594 19.5159L20.0662 20.9619L23.8941 23.1489L25.1929 22.8068L26.0359 22.162L27.175 21.9187L27.7897 21.3031L28.2003 21.2805ZM11.2102 17.4526L7.88747 20.9769L9.29669 28.2982L10.1171 22.8754L13.8045 19.6212L10.6373 20.6642L16.4741 16.3595L11.2102 17.4526ZM18.319 24.0605L15.5851 21.6912L22.0257 31.0782L22.4815 36L23.7878 32.6279L22.5116 29.7108L20.5069 26.2475L18.319 24.0605Z" fill="white"/>
</svg>
